<svg width="30" height="25" viewBox="0 0 30 25" fill="none" xmlns="http://www.w3.org/2000/svg">
<path d="M1.64835 3.53021C1.18132 3.53021 0.79011 3.36135 0.474725 3.02362C0.158242 2.68472 0 2.26522 0 1.76511C0 1.26499 0.158242 0.845486 0.474725 0.506586C0.79011 0.168862 1.18132 0 1.64835 0H18.1319C18.5989 0 18.9907 0.168862 19.3071 0.506586C19.6225 0.845486 19.7802 1.26499 19.7802 1.76511C19.7802 2.26522 19.6225 2.68472 19.3071 3.02362C18.9907 3.36135 18.5989 3.53021 18.1319 3.53021H1.64835ZM1.64835 10.5906C1.18132 10.5906 0.79011 10.4212 0.474725 10.0823C0.158242 9.74456 0 9.32564 0 8.82553C0 8.32541 0.158242 7.90591 0.474725 7.56701C0.79011 7.22928 1.18132 7.06042 1.64835 7.06042H18.1319C18.5989 7.06042 18.9907 7.22928 19.3071 7.56701C19.6225 7.90591 19.7802 8.32541 19.7802 8.82553C19.7802 9.32564 19.6225 9.74456 19.3071 10.0823C18.9907 10.4212 18.5989 10.5906 18.1319 10.5906H1.64835ZM1.64835 17.6511C1.18132 17.6511 0.79011 17.4816 0.474725 17.1427C0.158242 16.805 0 16.3861 0 15.8859C0 15.3858 0.158242 14.9663 0.474725 14.6274C0.79011 14.2897 1.18132 14.1208 1.64835 14.1208H11.5385C12.0055 14.1208 12.3973 14.2897 12.7137 14.6274C13.0291 14.9663 13.1868 15.3858 13.1868 15.8859C13.1868 16.3861 13.0291 16.805 12.7137 17.1427C12.3973 17.4816 12.0055 17.6511 11.5385 17.6511H1.64835ZM23.9835 24.6673C23.4341 25.0792 22.8709 25.1086 22.294 24.7556C21.717 24.4026 21.4286 23.873 21.4286 23.167V15.6653C21.4286 14.9593 21.717 14.4297 22.294 14.0767C22.8709 13.7237 23.4341 13.7531 23.9835 14.165L29.2582 17.9599C29.7527 18.313 30 18.7984 30 19.4162C30 20.0339 29.7527 20.5193 29.2582 20.8724L23.9835 24.6673Z" fill="#A0A0A0"/>
</svg>
