<svg width="27" height="25" viewBox="0 0 27 25" fill="none" xmlns="http://www.w3.org/2000/svg">
<g clip-path="url(#clip0_138_6)">
<path d="M9.49982 24.9999C10.0521 24.9999 10.4998 24.5522 10.4998 23.9999V17.1764C10.4998 16.6241 10.9475 16.1764 11.4998 16.1764H15.4998C16.0521 16.1764 16.4998 16.6241 16.4998 17.1764V23.9999C16.4998 24.5522 16.9475 24.9999 17.4998 24.9999H22.9998C23.5521 24.9999 23.9998 24.5522 23.9998 23.9999V14.2352C23.9998 13.6829 24.4475 13.2352 24.9998 13.2352H25.855C26.7763 13.2352 27.2075 12.0949 26.5167 11.4854L14.1614 0.583659C13.7834 0.250109 13.2162 0.250109 12.8382 0.583659L0.482965 11.4854C-0.207875 12.0949 0.223267 13.2352 1.14459 13.2352H1.99982C2.5521 13.2352 2.99982 13.6829 2.99982 14.2352V23.9999C2.99982 24.5522 3.44754 24.9999 3.99982 24.9999H9.49982Z" fill="#4300D1"/>
</g>
<defs>
<clipPath id="clip0_138_6">
<rect width="27" height="25" fill="white"/>
</clipPath>
</defs>
</svg>
